HIERARCHY
ROOT ui
{
	 OFFSET 0 0 0
	 CHANNELS 3 XPosition YPosition Z Position
	 EndSite
	 {
	 OFFSET 0 -1 0
	 }
}
ROOT li
{
	 OFFSET 0 0 0
	 CHANNELS 3 XPosition YPosition Z Position
	 EndSite
	 {
	 OFFSET 0 -1 0
	 }
}
ROOT ul
{
	 OFFSET 0 0 0
	 CHANNELS 3 XPosition YPosition Z Position
	 EndSite
	 {
	 OFFSET 0 -1 0
	 }
}
ROOT ll
{
	 OFFSET 0 0 0
	 CHANNELS 3 XPosition YPosition Z Position
	 EndSite
	 {
	 OFFSET 0 -1 0
	 }
}
ROOT tt
{
	 OFFSET 0 0 0
	 CHANNELS 3 XPosition YPosition Z Position
	 EndSite
	 {
	 OFFSET 0 -1 0
	 }
}
ROOT tb
{
	 OFFSET 0 0 0
	 CHANNELS 3 XPosition YPosition Z Position
	 EndSite
	 {
	 OFFSET 0 -1 0
	 }
}
ROOT td
{
	 OFFSET 0 0 0
	 CHANNELS 3 XPosition YPosition Z Position
	 EndSite
	 {
	 OFFSET 0 -1 0
	 }
}
ROOT v
{
	 OFFSET 0 0 0
	 CHANNELS 3 XPosition YPosition Z Position
	 EndSite
	 {
	 OFFSET 0 -1 0
	 }
}
ROOT bn
{
	 OFFSET 0 0 0
	 CHANNELS 3 XPosition YPosition Z Position
	 EndSite
	 {
	 OFFSET 0 -1 0
	 }
}
MOTION
Frames: 10
Frame Time: 0.002
-9.239400178194046E-5	5.30007004737854E-4	0		0.4545450744628906	-2.4066904296875	0		-1.06551513671875	-0.06292454147338868	0		-0.879415283203125	-2.339939208984375	0		1.5271563720703125	-0.6750639038085937	0		3.12255078125	-0.15174954223632814	0		4.5545419921875	-0.06236307907104492	0		5.59397998046875	0.15762197875976564	0		-0.1491261291503906	5.90850537109375	0		
0.0026454989910125733	0.0033665471076965332	0		0.4335509948730469	-2.397365234375	0		-1.0617734375	-0.06017282104492187	0		-0.8734761962890625	-2.334215087890625	0		1.56302587890625	-0.6677689819335938	0		3.118722412109375	-0.12659021759033204	0		4.5521884765625	-0.06414907836914062	0		5.58878662109375	0.16495599365234376	0		-0.14980905151367188	5.90839111328125	0		
0.002315011024475098	0.0032759358882904054	0		0.4582768859863281	-2.402906005859375	0		-1.062099853515625	-0.06033295440673828	0		-0.8756919555664062	-2.33632421875	0		1.5343580322265624	-0.6352077026367188	0		3.118978515625	-0.14849241638183594	0		4.5611484375	-0.0491177978515625	0		5.59744384765625	0.1650577392578125	0		-0.15052523803710938	5.90829052734375	0		
-0.001082427978515625	2.593429982662201E-4	0		0.42027691650390625	-2.3932255859375	0		-1.072396240234375	-0.058288368225097656	0		-0.8779130859375	-2.338419189453125	0		1.530984375	-0.6391210327148438	0		3.122914794921875	-0.13443614196777343	0		4.557697265625	-0.054827133178710935	0		5.59709228515625	0.16535972595214843	0		-0.28465914916992185	5.88875	0		
-0.001432541012763977	2.0207999646663666E-4	0		0.4439892883300781	-2.398710205078125	0		-1.0709139404296875	-0.06745457458496094	0		-0.880142578125	-2.340497314453125	0		1.530677490234375	-0.6390745849609375	0		3.128439453125	-0.14139488220214844	0		4.5573505859375	-0.05457583618164062	0		5.59673095703125	0.16568138122558593	0		-0.15299398803710937	5.9091572265625	0		
-0.0017916879653930664	1.6312800347805022E-4	0		0.42873675537109374	-2.401434326171875	0		-1.0671934814453126	-0.06364181137084961	0		-0.8783072509765625	-2.338633544921875	0		1.561824462890625	-0.6676127319335937	0		3.103151123046875	-0.13775039672851563	0		4.5569951171875	-0.054309165954589844	0		5.59636083984375	0.16601773071289064	0		-0.2861617431640625	5.88861572265625	0		
8.971520066261291E-4	0.0030860350131988526	0		0.46059762573242186	-2.39803125	0		-1.0635006103515625	-0.060808029174804684	0		-0.9103823852539062	-2.331107421875	0		1.5335628662109375	-0.6640008544921875	0		3.122468017578125	-0.1549405517578125	0		4.54259619140625	-0.05576357269287109	0		5.6011328125	0.17427095031738282	0		-0.13737681579589844	5.91575537109375	0		
5.225290060043335E-4	0.0030859780311584474	0		0.4225546875	-2.388287353515625	0		-1.06387109375	-0.060876983642578125	0		-0.8746688232421875	-2.334843994140625	0		1.561169921875	-0.6674285278320312	0		3.125611572265625	-0.12779985809326172	0		4.559373046875	-0.04779127502441406	0		5.6007470703125	0.1746333770751953	0		-0.13909629821777345	5.91776513671875	0		
0.00997102165222168	-0.006080508232116699	0		0.45501971435546873	-2.404857666015625	0		-1.068303466796875	-0.06384936904907226	0		-0.876938232421875	-2.33684228515625	0		1.5324375	-0.6347709350585937	0		3.116865234375	-0.14742788696289064	0		4.55588330078125	-0.053424507141113284	0		5.5952060546875	0.16710423278808595	0		-0.15503810119628905	5.90805908203125	0		
-0.003300565004348755	2.016330063343048E-4	0		0.44495291137695314	-2.3956044921875	0		-1.0686859130859374	-0.06387646102905273	0		-0.842279052734375	-2.34251123046875	0		1.5290162353515624	-0.6385794677734375	0		3.117656005859375	-0.13821499633789064	0		4.55136962890625	-0.06002577590942383	0		5.59067919921875	0.16056759643554688	0		-0.15579200744628907	5.9080888671875	0		
